STARTFONT 2.1
COMMENT CVS:Version $Id 1.6
COMMENT
COMMENT (C) CENA/J.L. Vinot, 2002, CENA (Centre d'Etudes de la Navigation Aťrienne)
COMMENT This software is free software; you can redistribute it and/or modify it 
COMMENT under the terms of the GNU Lesser General Public License as published by the Free Software Foundation: 
COMMENT either version 2 of the License, or (at your option) any later version.
COMMENT 
COMMENT This software is distributed in the hope that it will be useful, but WITHOUT ANY WARRANTY; 
COMMENT without even the implied warranty of MERCHANTABILITY or FITNESS FOR A PARTICULAR PURPOSE.  
COMMENT See the GNU Lesser General Public License for more details.
COMMENT 
COMMENT You should have received a copy of the GNU Lesser General Public License along with this software; 
COMMENT if not, write to the Free Software Foundation, Inc., 59 Temple Place - Suite 330, Boston, MA  02111-1307, USA.
COMMENT Please refer to http://www.gnu.org/copyleft/gpl.html
COMMENT 
COMMENT This font has been originally designed by CENA/France for the specific needs of Air Traffic Control. 
COMMENT For example, it must offer good legibility and avoid any confusion between character shapes. 
COMMENT CENA would like to preserve its qualities. If you have any specific need, you can modify this font, 
COMMENT but we would like you to change its name to avoid any confusion between your new font and the original one designed by CENA.
COMMENT Note however, that as implied in the LGPL licence, you must credit CENA for the original work. 
COMMENT Finally, CENA would appreciate it if you send back any enhancement or extension made to the original work. 
COMMENT This statement must be fully included with any further distribution of the font.
COMMENT 
COMMENT to contact us: email to:  pii-contact@cena.fr
COMMENT write to: CENA, 7 avenue Edouard Belin, 31400 Toulouse, France 
FONT -CenaPii-Bleriot Radar-Medium-R-Normal--15-150-75-75-P-92-ISO8859-15
SIZE 15 72 72

STARTCHAR gcid14
ENCODING 20
SWIDTH 600 0
DWIDTH 9 0
BBX 8 2 1 3
BITMAP
FF
FF
ENDCHAR
STARTCHAR gcid15
ENCODING 21
SWIDTH 733 0
DWIDTH 11 0
BBX 9 9 1 1
BITMAP
C000
E000
7000
3880
1D80
0F80
0780
0F80
1F80
ENDCHAR
STARTCHAR gcid16
ENCODING 22
SWIDTH 733 0
DWIDTH 11 0
BBX 9 9 1 1
BITMAP
1F80
0F80
0780
0F80
1D80
3880
7000
E000
C000
ENDCHAR
STARTCHAR space
ENCODING 32
SWIDTH 666 0
DWIDTH 10 0
BBX 0 0 0 0
BITMAP
ENDCHAR
STARTCHAR exclam
ENCODING 33
SWIDTH 333 0
DWIDTH 5 0
BBX 2 11 2 0
BITMAP
C0
C0
C0
C0
C0
C0
C0
C0
00
C0
C0
ENDCHAR
STARTCHAR quotedbl
ENCODING 34
SWIDTH 533 0
DWIDTH 8 0
BBX 5 3 2 8
BITMAP
D8
D8
90
ENDCHAR
STARTCHAR numbersign
ENCODING 35
SWIDTH 600 0
DWIDTH 9 0
BBX 9 9 1 1
BITMAP
1B00
1B00
7F80
3600
3600
3600
FF00
6C00
6C00
ENDCHAR
STARTCHAR dollar
ENCODING 36
SWIDTH 733 0
DWIDTH 11 0
BBX 8 14 2 -2
BITMAP
18
18
7E
DA
D8
F8
7C
1E
1F
9B
DB
7E
18
18
ENDCHAR
STARTCHAR percent
ENCODING 37
SWIDTH 933 0
DWIDTH 14 0
BBX 12 11 1 0
BITMAP
7080
D980
D900
DB00
7200
0600
04E0
0DB0
09B0
19B0
10E0
ENDCHAR
STARTCHAR ampersand
ENCODING 38
SWIDTH 733 0
DWIDTH 11 0
BBX 11 11 1 0
BITMAP
1E00
3300
3300
3600
1C00
3C00
6E40
C780
C380
E7C0
7CE0
ENDCHAR
STARTCHAR quotesingle
ENCODING 39
SWIDTH 333 0
DWIDTH 5 0
BBX 2 3 2 8
BITMAP
C0
C0
80
ENDCHAR
STARTCHAR parenleft
ENCODING 40
SWIDTH 466 0
DWIDTH 7 0
BBX 4 15 2 -3
BITMAP
10
20
60
40
C0
C0
C0
C0
C0
C0
C0
40
60
20
10
ENDCHAR
STARTCHAR parenright
ENCODING 41
SWIDTH 466 0
DWIDTH 7 0
BBX 4 15 1 -3
BITMAP
80
40
60
20
30
30
30
30
30
30
30
20
60
40
80
ENDCHAR
STARTCHAR asterisk
ENCODING 42
SWIDTH 466 0
DWIDTH 7 0
BBX 5 6 1 5
BITMAP
20
A8
70
70
A8
20
ENDCHAR
STARTCHAR plus
ENCODING 43
SWIDTH 666 0
DWIDTH 10 0
BBX 8 7 1 0
BITMAP
18
18
18
FF
18
18
18
ENDCHAR
STARTCHAR comma
ENCODING 44
SWIDTH 466 0
DWIDTH 7 0
BBX 2 4 2 -2
BITMAP
C0
C0
80
80
ENDCHAR
STARTCHAR hyphen
ENCODING 45
SWIDTH 466 0
DWIDTH 7 0
BBX 5 2 1 2
BITMAP
F8
F8
ENDCHAR
STARTCHAR period
ENCODING 46
SWIDTH 466 0
DWIDTH 7 0
BBX 2 2 2 0
BITMAP
C0
C0
ENDCHAR
STARTCHAR slash
ENCODING 47
SWIDTH 466 0
DWIDTH 7 0
BBX 7 13 0 -2
BITMAP
02
06
04
0C
08
18
10
30
20
60
40
C0
80
ENDCHAR
STARTCHAR zero
ENCODING 48
SWIDTH 733 0
DWIDTH 11 0
BBX 9 11 1 0
BITMAP
1C00
7700
6300
C580
CD80
C980
D980
D180
6300
7700
1C00
ENDCHAR
STARTCHAR one
ENCODING 49
SWIDTH 666 0
DWIDTH 10 0
BBX 6 11 1 0
BITMAP
0C
1C
3C
6C
CC
0C
0C
0C
0C
0C
0C
ENDCHAR
STARTCHAR two
ENCODING 50
SWIDTH 666 0
DWIDTH 10 0
BBX 8 11 2 0
BITMAP
7C
CE
86
06
06
0C
18
30
60
E0
FF
ENDCHAR
STARTCHAR three
ENCODING 51
SWIDTH 666 0
DWIDTH 10 0
BBX 8 11 1 0
BITMAP
7E
06
0C
18
3C
06
03
03
C3
66
3C
ENDCHAR
STARTCHAR four
ENCODING 52
SWIDTH 666 0
DWIDTH 10 0
BBX 9 11 1 0
BITMAP
0C00
1800
1800
3000
3200
6600
6600
C600
FF80
0600
0600
ENDCHAR
STARTCHAR five
ENCODING 53
SWIDTH 666 0
DWIDTH 10 0
BBX 8 11 1 0
BITMAP
7E
60
60
78
6E
07
03
03
83
C6
7C
ENDCHAR
STARTCHAR six
ENCODING 54
SWIDTH 666 0
DWIDTH 10 0
BBX 8 11 1 0
BITMAP
0C
18
30
60
7E
E7
C3
C3
C3
E6
7C
ENDCHAR
STARTCHAR seven
ENCODING 55
SWIDTH 666 0
DWIDTH 10 0
BBX 8 11 2 0
BITMAP
FF
03
06
0C
0C
18
18
30
30
60
60
ENDCHAR
STARTCHAR eight
ENCODING 56
SWIDTH 666 0
DWIDTH 10 0
BBX 9 11 1 0
BITMAP
3C00
6700
6300
7300
3E00
7E00
6700
C380
C180
E300
3E00
ENDCHAR
STARTCHAR nine
ENCODING 57
SWIDTH 666 0
DWIDTH 10 0
BBX 8 11 1 0
BITMAP
3E
67
C3
C3
C3
E7
3E
06
0C
18
30
ENDCHAR
STARTCHAR colon
ENCODING 58
SWIDTH 466 0
DWIDTH 7 0
BBX 2 8 2 0
BITMAP
C0
C0
00
00
00
00
C0
C0
ENDCHAR
STARTCHAR semicolon
ENCODING 59
SWIDTH 466 0
DWIDTH 7 0
BBX 2 10 2 -2
BITMAP
C0
C0
00
00
00
00
C0
C0
80
80
ENDCHAR
STARTCHAR less
ENCODING 60
SWIDTH 533 0
DWIDTH 8 0
BBX 6 9 1 0
BITMAP
0C
18
30
60
C0
60
30
18
0C
ENDCHAR
STARTCHAR equal
ENCODING 61
SWIDTH 533 0
DWIDTH 8 0
BBX 7 4 1 2
BITMAP
FE
00
00
FE
ENDCHAR
STARTCHAR greater
ENCODING 62
SWIDTH 533 0
DWIDTH 8 0
BBX 6 9 1 0
BITMAP
C0
60
30
18
0C
18
30
60
C0
ENDCHAR
STARTCHAR question
ENCODING 63
SWIDTH 666 0
DWIDTH 10 0
BBX 7 11 2 0
BITMAP
3C
66
C6
06
0C
18
30
30
00
30
30
ENDCHAR
STARTCHAR at
ENCODING 64
SWIDTH 1000 0
DWIDTH 15 0
BBX 14 13 1 -2
BITMAP
0FC0
3030
4008
47C4
8CC4
98C4
98C4
98C4
99C8
4EF0
4000
3060
0F80
ENDCHAR
STARTCHAR A
ENCODING 65
SWIDTH 666 0
DWIDTH 10 0
BBX 9 11 1 0
BITMAP
0800
1C00
1C00
3600
3600
2600
6300
6300
7F00
C180
C180
ENDCHAR
STARTCHAR B
ENCODING 66
SWIDTH 733 0
DWIDTH 11 0
BBX 8 11 2 0
BITMAP
FC
C6
C6
CC
FC
C6
C3
C3
C3
C6
FC
ENDCHAR
STARTCHAR C
ENCODING 67
SWIDTH 666 0
DWIDTH 10 0
BBX 8 11 1 0
BITMAP
1E
73
60
C0
C0
C0
C0
C0
60
73
1E
ENDCHAR
STARTCHAR D
ENCODING 68
SWIDTH 733 0
DWIDTH 11 0
BBX 9 11 2 0
BITMAP
FC00
C700
C300
C180
C180
C180
C180
C180
C300
C700
FC00
ENDCHAR
STARTCHAR E
ENCODING 69
SWIDTH 600 0
DWIDTH 9 0
BBX 7 11 2 0
BITMAP
FC
C0
C0
C0
C0
F8
C0
C0
C0
C0
FE
ENDCHAR
STARTCHAR F
ENCODING 70
SWIDTH 533 0
DWIDTH 8 0
BBX 6 11 2 0
BITMAP
FC
C0
C0
C0
C0
F8
C0
C0
C0
C0
C0
ENDCHAR
STARTCHAR G
ENCODING 71
SWIDTH 800 0
DWIDTH 12 0
BBX 9 11 2 0
BITMAP
1F00
7300
6000
C000
C000
CF80
C180
C180
6180
7180
1F80
ENDCHAR
STARTCHAR H
ENCODING 72
SWIDTH 733 0
DWIDTH 11 0
BBX 8 11 2 0
BITMAP
C3
C3
C3
C3
C3
FF
C3
C3
C3
C3
C3
ENDCHAR
STARTCHAR I
ENCODING 73
SWIDTH 400 0
DWIDTH 6 0
BBX 2 11 3 0
BITMAP
C0
C0
C0
C0
C0
C0
C0
C0
C0
C0
C0
ENDCHAR
STARTCHAR J
ENCODING 74
SWIDTH 466 0
DWIDTH 7 0
BBX 6 11 1 0
BITMAP
0C
0C
0C
0C
0C
0C
0C
0C
8C
D8
70
ENDCHAR
STARTCHAR K
ENCODING 75
SWIDTH 733 0
DWIDTH 11 0
BBX 9 11 2 0
BITMAP
C300
C600
CC00
D800
F000
F000
D800
CC00
C600
C300
C180
ENDCHAR
STARTCHAR L
ENCODING 76
SWIDTH 600 0
DWIDTH 9 0
BBX 7 11 2 0
BITMAP
C0
C0
C0
C0
C0
C0
C0
C0
C0
C0
FE
ENDCHAR
STARTCHAR M
ENCODING 77
SWIDTH 933 0
DWIDTH 14 0
BBX 11 11 2 0
BITMAP
C060
C060
E0E0
E0E0
F1E0
D160
DB60
CA60
CE60
C460
C460
ENDCHAR
STARTCHAR N
ENCODING 78
SWIDTH 800 0
DWIDTH 12 0
BBX 9 11 2 0
BITMAP
C180
E180
E180
F180
D980
C980
CD80
C780
C380
C380
C180
ENDCHAR
STARTCHAR O
ENCODING 79
SWIDTH 800 0
DWIDTH 12 0
BBX 10 11 1 0
BITMAP
1E00
7380
6180
C0C0
C0C0
C0C0
C0C0
C0C0
6180
7380
1E00
ENDCHAR
STARTCHAR P
ENCODING 80
SWIDTH 666 0
DWIDTH 10 0
BBX 8 11 2 0
BITMAP
FC
C6
C3
C3
C3
C6
FC
C0
C0
C0
C0
ENDCHAR
STARTCHAR Q
ENCODING 81
SWIDTH 800 0
DWIDTH 12 0
BBX 10 11 1 0
BITMAP
1E00
7380
6180
C0C0
C0C0
C0C0
DCC0
E6C0
6380
7380
1EC0
ENDCHAR
STARTCHAR R
ENCODING 82
SWIDTH 733 0
DWIDTH 11 0
BBX 9 11 2 0
BITMAP
FC00
CE00
C600
C600
C600
CC00
F800
DC00
CE00
C700
C380
ENDCHAR
STARTCHAR S
ENCODING 83
SWIDTH 666 0
DWIDTH 10 0
BBX 8 11 1 0
BITMAP
3C
66
60
70
3C
1E
07
03
43
E6
7C
ENDCHAR
STARTCHAR T
ENCODING 84
SWIDTH 600 0
DWIDTH 9 0
BBX 8 11 1 0
BITMAP
FF
18
18
18
18
18
18
18
18
18
18
ENDCHAR
STARTCHAR U
ENCODING 85
SWIDTH 733 0
DWIDTH 11 0
BBX 8 11 2 0
BITMAP
C3
C3
C3
C3
C3
C3
C3
C3
C3
66
3C
ENDCHAR
STARTCHAR V
ENCODING 86
SWIDTH 666 0
DWIDTH 10 0
BBX 9 11 1 0
BITMAP
C180
C100
C100
6300
6200
6200
3600
3400
3C00
1800
1800
ENDCHAR
STARTCHAR W
ENCODING 87
SWIDTH 1066 0
DWIDTH 16 0
BBX 15 11 1 0
BITMAP
C206
C304
C304
678C
6788
65D8
34D8
3CD0
38F0
1860
1860
ENDCHAR
STARTCHAR X
ENCODING 88
SWIDTH 733 0
DWIDTH 11 0
BBX 9 11 2 0
BITMAP
E180
6300
3200
3E00
1C00
1C00
1E00
3600
6300
6380
C180
ENDCHAR
STARTCHAR Y
ENCODING 89
SWIDTH 600 0
DWIDTH 9 0
BBX 8 11 1 0
BITMAP
C1
C3
62
66
34
3C
18
18
18
18
18
ENDCHAR
STARTCHAR Z
ENCODING 90
SWIDTH 733 0
DWIDTH 11 0
BBX 9 11 2 0
BITMAP
FF00
0700
0600
0C00
1C00
1800
3000
7000
6000
E000
FF80
ENDCHAR
STARTCHAR bracketleft
ENCODING 91
SWIDTH 466 0
DWIDTH 7 0
BBX 4 15 2 -3
BITMAP
F0
C0
C0
C0
C0
C0
C0
C0
C0
C0
C0
C0
C0
C0
F0
ENDCHAR
STARTCHAR backslash
ENCODING 92
SWIDTH 466 0
DWIDTH 7 0
BBX 7 13 0 -2
BITMAP
80
C0
40
60
20
30
10
18
08
0C
04
06
02
ENDCHAR
STARTCHAR bracketright
ENCODING 93
SWIDTH 466 0
DWIDTH 7 0
BBX 4 15 1 -3
BITMAP
F0
30
30
30
30
30
30
30
30
30
30
30
30
30
F0
ENDCHAR
STARTCHAR asciicircum
ENCODING 94
SWIDTH 600 0
DWIDTH 9 0
BBX 7 3 2 8
BITMAP
38
6C
C6
ENDCHAR
STARTCHAR underscore
ENCODING 95
SWIDTH 666 0
DWIDTH 10 0
BBX 10 1 0 -3
BITMAP
FFC0
ENDCHAR
STARTCHAR a
ENCODING 97
SWIDTH 533 0
DWIDTH 8 0
BBX 7 8 1 0
BITMAP
3C
66
06
3E
66
C6
CE
76
ENDCHAR
STARTCHAR b
ENCODING 98
SWIDTH 666 0
DWIDTH 10 0
BBX 8 11 2 0
BITMAP
C0
C0
C0
D8
EC
C6
C6
C7
C6
CE
F8
ENDCHAR
STARTCHAR c
ENCODING 99
SWIDTH 533 0
DWIDTH 8 0
BBX 6 8 2 0
BITMAP
38
6C
C0
C0
C0
C0
6C
38
ENDCHAR
STARTCHAR d
ENCODING 100
SWIDTH 666 0
DWIDTH 10 0
BBX 8 11 1 0
BITMAP
03
03
03
1B
37
63
63
E3
63
73
1F
ENDCHAR
STARTCHAR e
ENCODING 101
SWIDTH 600 0
DWIDTH 9 0
BBX 7 8 2 0
BITMAP
3C
66
C6
CE
F8
C0
62
3C
ENDCHAR
STARTCHAR f
ENCODING 102
SWIDTH 466 0
DWIDTH 7 0
BBX 7 11 1 0
BITMAP
1E
32
30
30
FC
30
30
30
30
30
30
ENDCHAR
STARTCHAR g
ENCODING 103
SWIDTH 666 0
DWIDTH 10 0
BBX 7 11 2 -3
BITMAP
3E
66
C6
C6
C6
C6
6E
36
06
46
7C
ENDCHAR
STARTCHAR h
ENCODING 104
SWIDTH 666 0
DWIDTH 10 0
BBX 7 11 2 0
BITMAP
C0
C0
C0
D8
EC
C6
C6
C6
C6
C6
C6
ENDCHAR
STARTCHAR i
ENCODING 105
SWIDTH 400 0
DWIDTH 6 0
BBX 2 11 3 0
BITMAP
C0
C0
00
40
C0
C0
C0
C0
C0
C0
C0
ENDCHAR
STARTCHAR j
ENCODING 106
SWIDTH 400 0
DWIDTH 6 0
BBX 5 14 0 -3
BITMAP
18
18
00
08
18
18
18
18
18
18
18
18
10
F0
ENDCHAR
STARTCHAR k
ENCODING 107
SWIDTH 666 0
DWIDTH 10 0
BBX 8 11 2 0
BITMAP
C0
C0
C0
CC
D8
F0
F0
D8
CC
C6
C3
ENDCHAR
STARTCHAR l
ENCODING 108
SWIDTH 400 0
DWIDTH 6 0
BBX 4 11 2 0
BITMAP
C0
C0
C0
C0
C0
C0
C0
C0
C0
C0
70
ENDCHAR
STARTCHAR m
ENCODING 109
SWIDTH 800 0
DWIDTH 12 0
BBX 10 8 2 0
BITMAP
D980
EEC0
CCC0
CCC0
CCC0
CCC0
CCC0
CCC0
ENDCHAR
STARTCHAR n
ENCODING 110
SWIDTH 600 0
DWIDTH 9 0
BBX 7 8 2 0
BITMAP
DC
E6
C6
C6
C6
C6
C6
C6
ENDCHAR
STARTCHAR o
ENCODING 111
SWIDTH 666 0
DWIDTH 10 0
BBX 8 8 2 0
BITMAP
3C
66
C3
C3
C3
C3
66
3C
ENDCHAR
STARTCHAR p
ENCODING 112
SWIDTH 666 0
DWIDTH 10 0
BBX 8 11 2 -3
BITMAP
F8
CC
C6
C6
C7
C6
EE
D8
C0
C0
C0
ENDCHAR
STARTCHAR q
ENCODING 113
SWIDTH 600 0
DWIDTH 9 0
BBX 8 11 1 -3
BITMAP
1F
33
63
E3
63
63
37
1B
03
03
03
ENDCHAR
STARTCHAR r
ENCODING 114
SWIDTH 533 0
DWIDTH 8 0
BBX 6 8 2 0
BITMAP
D8
EC
CC
C0
C0
C0
C0
C0
ENDCHAR
STARTCHAR s
ENCODING 115
SWIDTH 533 0
DWIDTH 8 0
BBX 7 8 1 0
BITMAP
3C
66
70
3C
0E
06
C6
7C
ENDCHAR
STARTCHAR t
ENCODING 116
SWIDTH 466 0
DWIDTH 7 0
BBX 7 11 0 0
BITMAP
10
30
30
FC
30
30
30
30
30
32
1C
ENDCHAR
STARTCHAR u
ENCODING 117
SWIDTH 600 0
DWIDTH 9 0
BBX 7 8 2 0
BITMAP
C6
C6
C6
C6
C6
C6
CE
76
ENDCHAR
STARTCHAR v
ENCODING 118
SWIDTH 600 0
DWIDTH 9 0
BBX 8 8 1 0
BITMAP
C1
63
62
66
34
3C
18
18
ENDCHAR
STARTCHAR w
ENCODING 119
SWIDTH 866 0
DWIDTH 13 0
BBX 12 8 1 0
BITMAP
C430
C620
6620
6F60
6B40
3BC0
3180
3180
ENDCHAR
STARTCHAR x
ENCODING 120
SWIDTH 600 0
DWIDTH 9 0
BBX 8 8 1 0
BITMAP
E3
76
3C
18
3C
2E
67
C3
ENDCHAR
STARTCHAR y
ENCODING 121
SWIDTH 600 0
DWIDTH 9 0
BBX 8 10 1 -2
BITMAP
C3
C3
63
36
36
1C
0C
18
18
30
ENDCHAR
STARTCHAR z
ENCODING 122
SWIDTH 533 0
DWIDTH 8 0
BBX 8 8 1 0
BITMAP
FE
0C
1C
18
30
70
60
FF
ENDCHAR
STARTCHAR braceleft
ENCODING 123
SWIDTH 533 0
DWIDTH 8 0
BBX 6 15 1 -3
BITMAP
1C
30
30
30
30
30
30
C0
30
30
30
30
30
30
1C
ENDCHAR
STARTCHAR bar
ENCODING 124
SWIDTH 400 0
DWIDTH 6 0
BBX 2 14 2 -2
BITMAP
C0
C0
C0
C0
C0
C0
C0
C0
C0
C0
C0
C0
C0
C0
ENDCHAR
STARTCHAR braceright
ENCODING 125
SWIDTH 533 0
DWIDTH 8 0
BBX 6 15 1 -3
BITMAP
E0
30
30
30
30
30
30
0C
30
30
30
30
30
30
E0
ENDCHAR
STARTCHAR Euro
ENCODING 164
SWIDTH 733 0
DWIDTH 11 0
BBX 10 11 1 0
BITMAP
0F80
38C0
3000
FF00
6000
FC00
6000
6000
3040
39C0
0F00
ENDCHAR
STARTCHAR degree
ENCODING 176
SWIDTH 400 0
DWIDTH 6 0
BBX 5 4 1 7
BITMAP
70
D8
D8
70
ENDCHAR
STARTCHAR Agrave
ENCODING 192
SWIDTH 733 0
DWIDTH 11 0
BBX 9 14 1 0
BITMAP
3000
1800
0000
0800
1C00
1C00
3600
3600
2600
6300
6300
7F00
C180
C180
ENDCHAR
STARTCHAR Acircumflex
ENCODING 194
SWIDTH 733 0
DWIDTH 11 0
BBX 9 14 1 0
BITMAP
0C00
1600
0000
0800
1C00
1C00
3600
3600
2600
6300
6300
7F00
C180
C180
ENDCHAR
STARTCHAR Ccedilla
ENCODING 199
SWIDTH 666 0
DWIDTH 10 0
BBX 8 14 2 -3
BITMAP
1E
73
60
C0
C0
C0
C0
C0
60
73
1E
0E
06
3C
ENDCHAR
STARTCHAR Egrave
ENCODING 200
SWIDTH 600 0
DWIDTH 9 0
BBX 7 14 2 0
BITMAP
60
30
00
FC
C0
C0
C0
C0
F8
C0
C0
C0
C0
FE
ENDCHAR
STARTCHAR Eacute
ENCODING 201
SWIDTH 600 0
DWIDTH 9 0
BBX 7 14 2 0
BITMAP
18
30
00
FC
C0
C0
C0
C0
F8
C0
C0
C0
C0
FE
ENDCHAR
STARTCHAR Ecircumflex
ENCODING 202
SWIDTH 600 0
DWIDTH 9 0
BBX 7 14 2 0
BITMAP
30
58
00
FC
C0
C0
C0
C0
F8
C0
C0
C0
C0
FE
ENDCHAR
STARTCHAR Edieresis
ENCODING 203
SWIDTH 600 0
DWIDTH 9 0
BBX 6 14 2 0
BITMAP
D8
48
00
FC
C0
C0
C0
C0
F8
C0
C0
C0
C0
FC
ENDCHAR
STARTCHAR Icircumflex
ENCODING 206
SWIDTH 400 0
DWIDTH 6 0
BBX 4 14 2 0
BITMAP
60
B0
00
60
60
60
60
60
60
60
60
60
60
60
ENDCHAR
STARTCHAR Idieresis
ENCODING 207
SWIDTH 400 0
DWIDTH 6 0
BBX 5 14 1 0
BITMAP
D8
48
00
30
30
30
30
30
30
30
30
30
30
30
ENDCHAR
STARTCHAR Ocircumflex
ENCODING 212
SWIDTH 800 0
DWIDTH 12 0
BBX 10 14 2 0
BITMAP
0C00
1600
0000
1E00
7380
6180
C0C0
C0C0
C0C0
C0C0
C0C0
6180
7380
1E00
ENDCHAR
STARTCHAR Ugrave
ENCODING 217
SWIDTH 733 0
DWIDTH 11 0
BBX 8 14 2 0
BITMAP
30
18
00
C3
C3
C3
C3
C3
C3
C3
C3
C3
66
3C
ENDCHAR
STARTCHAR Ucircumflex
ENCODING 219
SWIDTH 733 0
DWIDTH 11 0
BBX 8 14 2 0
BITMAP
18
2C
00
C3
C3
C3
C3
C3
C3
C3
C3
C3
66
3C
ENDCHAR
STARTCHAR Udieresis
ENCODING 220
SWIDTH 733 0
DWIDTH 11 0
BBX 8 14 2 0
BITMAP
6C
24
00
C3
C3
C3
C3
C3
C3
C3
C3
C3
66
3C
ENDCHAR
STARTCHAR agrave
ENCODING 224
SWIDTH 533 0
DWIDTH 8 0
BBX 7 11 1 0
BITMAP
30
18
00
3C
66
06
3E
66
C6
CE
76
ENDCHAR
STARTCHAR acircumflex
ENCODING 226
SWIDTH 533 0
DWIDTH 8 0
BBX 7 11 1 0
BITMAP
18
2C
00
3C
66
06
3E
66
C6
CE
76
ENDCHAR
STARTCHAR ccedilla
ENCODING 231
SWIDTH 533 0
DWIDTH 8 0
BBX 6 10 2 -2
BITMAP
38
6C
C0
C0
C0
C0
6C
38
18
30
ENDCHAR
STARTCHAR egrave
ENCODING 232
SWIDTH 600 0
DWIDTH 9 0
BBX 7 11 2 0
BITMAP
30
18
00
3C
66
C6
CE
F8
C0
62
3C
ENDCHAR
STARTCHAR eacute
ENCODING 233
SWIDTH 600 0
DWIDTH 9 0
BBX 7 11 2 0
BITMAP
0C
18
00
3C
66
C6
CE
F8
C0
62
3C
ENDCHAR
STARTCHAR ecircumflex
ENCODING 234
SWIDTH 600 0
DWIDTH 9 0
BBX 7 11 2 0
BITMAP
18
2C
00
3C
66
C6
CE
F8
C0
62
3C
ENDCHAR
STARTCHAR edieresis
ENCODING 235
SWIDTH 600 0
DWIDTH 9 0
BBX 7 11 2 0
BITMAP
6C
24
00
3C
66
C6
CE
F8
C0
62
3C
ENDCHAR
STARTCHAR icircumflex
ENCODING 238
SWIDTH 400 0
DWIDTH 6 0
BBX 4 11 2 0
BITMAP
60
B0
00
20
60
60
60
60
60
60
60
ENDCHAR
STARTCHAR idieresis
ENCODING 239
SWIDTH 400 0
DWIDTH 6 0
BBX 5 11 1 0
BITMAP
D8
48
00
10
30
30
30
30
30
30
30
ENDCHAR
STARTCHAR ocircumflex
ENCODING 244
SWIDTH 666 0
DWIDTH 10 0
BBX 8 11 2 0
BITMAP
18
2C
00
3C
66
C3
C3
C3
C3
66
3C
ENDCHAR
STARTCHAR ugrave
ENCODING 249
SWIDTH 600 0
DWIDTH 9 0
BBX 7 11 2 0
BITMAP
30
18
00
C6
C6
C6
C6
C6
C6
CE
76
ENDCHAR
STARTCHAR ucircumflex
ENCODING 251
SWIDTH 600 0
DWIDTH 9 0
BBX 7 11 2 0
BITMAP
18
2C
00
C6
C6
C6
C6
C6
C6
CE
76
ENDCHAR
STARTCHAR udieresis
ENCODING 252
SWIDTH 600 0
DWIDTH 9 0
BBX 7 11 2 0
BITMAP
6C
24
00
C6
C6
C6
C6
C6
C6
CE
76
ENDCHAR
ENDFONT
